<?xml version="1.0" encoding="utf-8"?>
<!-- Generator: Adobe Illustrator 19.2.1, SVG Export Plug-In . SVG Version: 6.00 Build 0)  -->
<svg version="1.1" id="Layer_1" xmlns="http://www.w3.org/2000/svg" xmlns:xlink="http://www.w3.org/1999/xlink" x="0px" y="0px"
	 viewBox="0 0 365.2 130.1" style="enable-background:new 0 0 365.2 130.1;" xml:space="preserve">
<style type="text/css">
	.st0{fill:#333333;}
</style>
<title>Collect_logo</title>
<g id="_Group_">
	<g id="_Group_2">
		<g id="_Group_3">
			<path id="_Compound_Path_" class="st0" d="M53.9,43.9c0-5-3-7.4-8.9-7.4h-2.6c-6,0-8.9,2.5-8.9,7.4v48.7c0,5,3,7.4,8.9,7.4h2.8
				c6,0,8.9-2.5,8.9-7.4V76h14v16.1c0,12.6-7.6,18.9-22.7,18.9h-3.3c-15.1,0-22.7-6.4-22.7-18.9V44.3c0-12.6,7.6-18.9,22.7-18.9h3.5
				c14.9,0,22.3,6.2,22.3,18.6v13.6h-14V43.9L53.9,43.9z"/>
			<path id="_Compound_Path_2" class="st0" d="M102.5,111c-15.1,0-22.7-6.4-22.7-18.9V44.3c0-12.6,7.6-18.9,22.7-18.9h4.1
				c15.1,0,22.7,6.4,22.7,18.9v47.8c0,12.6-7.6,18.9-22.7,18.9L102.5,111L102.5,111z M102.9,36.4c-6,0-8.9,2.5-8.9,7.4v48.7
				c0,5,3,7.4,8.9,7.4h3.4c6,0,8.9-2.5,8.9-7.4V43.9c0-5-3-7.4-8.9-7.4L102.9,36.4L102.9,36.4z"/>
			<path id="_Compound_Path_3" class="st0" d="M142.3,0h14.1v110.1h-14.1V0z"/>
			<path id="_Compound_Path_4" class="st0" d="M170.6,0h14.1v110.1h-14.1V0z"/>
			<path id="_Compound_Path_5" class="st0" d="M211.9,72.6v20c0,5,3,7.4,8.9,7.4h2.6c6,0,8.9-2.5,8.9-7.4v-9.6h13.8v9.1
				c0,12.6-7.6,18.9-22.7,18.9h-3c-15.1,0-22.7-6.4-22.7-18.9V44.3c0-12.6,7.6-18.9,22.7-18.9h3c15.1,0,22.7,6.4,22.7,18.9v28.2
				L211.9,72.6L211.9,72.6z M211.9,61.4H232V43.9c0-5-3-7.4-8.9-7.4h-2.2c-6,0-8.9,2.5-8.9,7.4V61.4L211.9,61.4z"/>
			<path id="_Compound_Path_6" class="st0" d="M292.5,43.9c0-5-3-7.4-8.9-7.4h-2.6c-6,0-8.9,2.5-8.9,7.4v48.7c0,5,3,7.4,8.9,7.4h2.8
				c6,0,8.9-2.5,8.9-7.4V76h14v16.1c0,12.6-7.6,18.9-22.7,18.9h-3.4c-15.1,0-22.7-6.4-22.7-18.9V44.3c0-12.6,7.6-18.9,22.7-18.9h3.5
				c14.9,0,22.3,6.2,22.3,18.6v13.6h-14L292.5,43.9L292.5,43.9z"/>
			<path id="_Compound_Path_7" class="st0" d="M335.8,110.1h-14.1V37.2H315V26.3h6.7v-14h14.1v14H346v10.9h-10.2V110.1z"/>
		</g>
	</g>
	<g id="_Group_4">
		<polygon class="st0" points="365.2,130.1 0,130.1 0,6.7 129.3,6.7 129.3,14.9 8.1,14.9 8.1,121.9 357,121.9 357,14.9 197.8,14.9 
			197.8,6.7 365.2,6.7 		"/>
	</g>
</g>
</svg>
